<svg width="11" height="11" xmlns="http://www.w3.org/2000/svg" xmlns:xlink="http://www.w3.org/1999/xlink"><defs><path d="M.44 1.484c0 .606.462 1.098 1.03 1.098.569 0 1.03-.492 1.03-1.098C2.5.878 2.04.386 1.47.386.903.386.44.878.44 1.484zm.587 0c0-.26.199-.474.444-.474s.444.214.444.474c0 .261-.2.474-.444.474-.245 0-.444-.213-.444-.474z" id="a"/><path d="M.402 1.484c0 .606.462 1.098 1.03 1.098.569 0 1.03-.492 1.03-1.098 0-.606-.461-1.098-1.03-1.098-.568 0-1.03.492-1.03 1.098zm.586 0c0-.26.199-.474.444-.474s.444.214.444.474c0 .261-.199.474-.444.474s-.444-.213-.444-.474z" id="c"/></defs><g fill="none" fill-rule="evenodd"><path fill="#FFF" d="M-353-42H22v2483h-375z"/><path fill="#FFF" d="M-353-42H22v2483h-375z"/><path fill="#10504F" d="M-353-21H22v53h-375z"/><g transform="translate(6.696 7.525)"><mask id="b" fill="#fff"><use xlink:href="#a"/></mask><path fill="#FEFEFE" mask="url(#b)" d="M-1.872 5h6.685v-7.031h-6.685z"/></g><g transform="translate(2.87 7.525)"><mask id="d" fill="#fff"><use xlink:href="#c"/></mask><path fill="#FEFEFE" mask="url(#d)" d="M-1.911 5h6.686v-7.031h-6.686z"/></g><path d="M8.646 6.49H3.879l-.844-3.72H9.54l-.895 3.72zm1.856-4.51a.45.45 0 0 0-.366-.19H2.812L2.49.374A.467.467 0 0 0 2.04 0H.462C.208 0 0 .22 0 .49c0 .271.207.491.462.491h1.217l1.388 6.115c.05.221.234.376.448.376h5.49c.21 0 .393-.152.446-.37l1.132-4.7a.518.518 0 0 0-.08-.421z" fill="#FEFEFE"/></g></svg>